<svg xmlns="http://www.w3.org/2000/svg" viewBox="0 0 900 600" width="900" height="600"><rect x="0.0" y="0.0" width="900.0" height="200.5" fill="#FF9933"/><rect x="0.0" y="200.0" width="900.0" height="200.5" fill="#fff"/><rect x="0.0" y="400.0" width="900.0" height="200.5" fill="#138808"/><circle cx="450" cy="300" r="80" fill="none" stroke="#000080" stroke-width="10"/><line x1="450" y1="300" x2="528.0" y2="300.0" stroke="#000080" stroke-width="4"/><line x1="450" y1="300" x2="525.3" y2="320.2" stroke="#000080" stroke-width="4"/><line x1="450" y1="300" x2="517.5" y2="339.0" stroke="#000080" stroke-width="4"/><line x1="450" y1="300" x2="505.2" y2="355.2" stroke="#000080" stroke-width="4"/><line x1="450" y1="300" x2="489.0" y2="367.5" stroke="#000080" stroke-width="4"/><line x1="450" y1="300" x2="470.2" y2="375.3" stroke="#000080" stroke-width="4"/><line x1="450" y1="300" x2="450.0" y2="378.0" stroke="#000080" stroke-width="4"/><line x1="450" y1="300" x2="429.8" y2="375.3" stroke="#000080" stroke-width="4"/><line x1="450" y1="300" x2="411.0" y2="367.5" stroke="#000080" stroke-width="4"/><line x1="450" y1="300" x2="394.8" y2="355.2" stroke="#000080" stroke-width="4"/><line x1="450" y1="300" x2="382.5" y2="339.0" stroke="#000080" stroke-width="4"/><line x1="450" y1="300" x2="374.7" y2="320.2" stroke="#000080" stroke-width="4"/><line x1="450" y1="300" x2="372.0" y2="300.0" stroke="#000080" stroke-width="4"/><line x1="450" y1="300" x2="374.7" y2="279.8" stroke="#000080" stroke-width="4"/><line x1="450" y1="300" x2="382.5" y2="261.0" stroke="#000080" stroke-width="4"/><line x1="450" y1="300" x2="394.8" y2="244.8" stroke="#000080" stroke-width="4"/><line x1="450" y1="300" x2="411.0" y2="232.5" stroke="#000080" stroke-width="4"/><line x1="450" y1="300" x2="429.8" y2="224.7" stroke="#000080" stroke-width="4"/><line x1="450" y1="300" x2="450.0" y2="222.0" stroke="#000080" stroke-width="4"/><line x1="450" y1="300" x2="470.2" y2="224.7" stroke="#000080" stroke-width="4"/><line x1="450" y1="300" x2="489.0" y2="232.5" stroke="#000080" stroke-width="4"/><line x1="450" y1="300" x2="505.2" y2="244.8" stroke="#000080" stroke-width="4"/><line x1="450" y1="300" x2="517.5" y2="261.0" stroke="#000080" stroke-width="4"/><line x1="450" y1="300" x2="525.3" y2="279.8" stroke="#000080" stroke-width="4"/><circle cx="450.0" cy="300.0" r="14.0" fill="#000080"/></svg>
